<svg width="49" height="49" viewBox="0 0 49 49" fill="none" xmlns="http://www.w3.org/2000/svg">
<path opacity="0.1" fill-rule="evenodd" clip-rule="evenodd" d="M24.3333 47.5307C37.22 47.5307 47.6667 37.0733 47.6667 24.1735C47.6667 11.2738 37.22 0.816406 24.3333 0.816406C11.4467 0.816406 1 11.2738 1 24.1735C1 37.0733 11.4467 47.5307 24.3333 47.5307Z" stroke="#0A142F" stroke-width="1.5"/>
<path d="M26.4579 18.1949H28.6024C28.7997 18.1949 28.9598 18.0439 28.9598 17.8578V15.8349C28.9598 15.6488 28.7997 15.4978 28.6024 15.4978H26.4579C24.2905 15.4978 22.5263 17.1613 22.5263 19.2064V21.5663H20.0244C19.8271 21.5663 19.667 21.7174 19.667 21.9035V23.9263C19.667 24.1124 19.8271 24.2635 20.0244 24.2635H22.5263V31.3434C22.5263 31.5295 22.6865 31.6806 22.8837 31.6806H25.0283C25.2255 31.6806 25.3857 31.5295 25.3857 31.3434V24.2635H27.8876C28.0413 24.2635 28.1778 24.1704 28.2271 24.0329L28.942 22.01C28.9784 21.9075 28.9598 21.7942 28.8927 21.7059C28.8247 21.6183 28.7175 21.5663 28.6024 21.5663H25.3857V19.2064C25.3857 18.6487 25.8668 18.1949 26.4579 18.1949Z" fill="#0A142F"/>
</svg>
