<svg width="49" height="49" viewBox="0 0 49 49" fill="none" xmlns="http://www.w3.org/2000/svg">
<path opacity="0.1" fill-rule="evenodd" clip-rule="evenodd" d="M24.6668 47.5307C37.5535 47.5307 48.0002 37.0733 48.0002 24.1735C48.0002 11.2738 37.5535 0.816406 24.6668 0.816406C11.7802 0.816406 1.3335 11.2738 1.3335 24.1735C1.3335 37.0733 11.7802 47.5307 24.6668 47.5307Z" stroke="#0A142F" stroke-width="1.5"/>
<path d="M19.3116 19.4582C20.404 19.4582 21.2896 18.5717 21.2896 17.4781C21.2896 16.3846 20.404 15.498 19.3116 15.498C18.2191 15.498 17.3335 16.3846 17.3335 17.4781C17.3335 18.5717 18.2191 19.4582 19.3116 19.4582Z" fill="#0A142F"/>
<path d="M20.96 20.781H17.6632C17.4812 20.781 17.3335 20.9289 17.3335 21.111V31.0114C17.3335 31.1936 17.4812 31.3415 17.6632 31.3415H20.96C21.1419 31.3415 21.2896 31.1936 21.2896 31.0114V21.111C21.2896 20.9289 21.1419 20.781 20.96 20.781Z" fill="#0A142F"/>
<path d="M30.7844 20.2319C29.3753 19.7488 27.6129 20.1732 26.5559 20.9342C26.5197 20.7923 26.3904 20.6867 26.2368 20.6867H22.94C22.758 20.6867 22.6104 20.8345 22.6104 21.0167V30.9171C22.6104 31.0993 22.758 31.2471 22.94 31.2471H26.2368C26.4188 31.2471 26.5665 31.0993 26.5665 30.9171V23.802C27.0992 23.3426 27.7856 23.1961 28.3474 23.435C28.892 23.6654 29.2039 24.2277 29.2039 24.9769V30.9171C29.2039 31.0993 29.3516 31.2471 29.5336 31.2471H32.8304C33.0123 31.2471 33.16 31.0993 33.16 30.9171V24.3122C33.1225 21.6002 31.8479 20.5963 30.7844 20.2319Z" fill="#0A142F"/>
</svg>
