<svg width="50" height="49" viewBox="0 0 50 49" fill="none" xmlns="http://www.w3.org/2000/svg">
<path opacity="0.1" fill-rule="evenodd" clip-rule="evenodd" d="M25.0003 47.5307C37.887 47.5307 48.3337 37.0733 48.3337 24.1735C48.3337 11.2738 37.887 0.816406 25.0003 0.816406C12.1137 0.816406 1.66699 11.2738 1.66699 24.1735C1.66699 37.0733 12.1137 47.5307 25.0003 47.5307Z" stroke="#0A142F" stroke-width="1.5"/>
<path d="M32.6271 19.8554C32.5188 19.7329 32.3443 19.7021 32.2011 19.7777C32.112 19.8246 31.9446 19.8862 31.7458 19.9471C31.9966 19.6038 32.1982 19.2194 32.2873 18.8739C32.3257 18.725 32.2694 18.568 32.1469 18.4793C32.0244 18.3913 31.8612 18.3913 31.7387 18.4793C31.5456 18.6179 30.6137 19.0346 30.0245 19.1696C28.6929 17.9687 27.1433 17.844 25.5325 18.8123C24.223 19.5994 23.938 21.2001 23.9936 22.1757C20.9963 21.8786 19.1332 20.2486 18.0845 18.8996C18.0111 18.805 17.8928 18.7551 17.7817 18.7624C17.6648 18.7712 17.5594 18.838 17.4996 18.9414C17.0037 19.8034 16.8662 20.7562 17.1034 21.6974C17.2331 22.2109 17.4597 22.6635 17.7226 23.0303C17.5964 22.9665 17.4746 22.8865 17.3599 22.7911C17.2545 22.7016 17.107 22.6848 16.9823 22.7442C16.8583 22.8051 16.7793 22.9342 16.7793 23.0758C16.7793 24.6918 17.761 25.7701 18.678 26.3335C18.5298 26.3152 18.3752 26.2814 18.2191 26.2323C18.0852 26.1905 17.9398 26.2323 17.8472 26.3408C17.7546 26.4487 17.7325 26.6027 17.7902 26.734C18.3053 27.907 19.2814 28.7139 20.489 29.0066C19.4346 29.644 18.0232 29.9565 16.7308 29.8032C16.5634 29.779 16.4038 29.8883 16.3511 30.0541C16.2984 30.2199 16.3675 30.4018 16.5149 30.4869C18.4756 31.6203 20.2482 32.0252 21.78 32.0252C24.0092 32.0252 25.7298 31.1684 26.7771 30.4517C29.6006 28.5224 31.3604 25.0586 31.1153 21.9593C31.5677 21.6152 32.2445 20.98 32.6641 20.297C32.7511 20.1591 32.7354 19.9772 32.6271 19.8554Z" fill="#0A142F"/>
</svg>
